<svg width="150" height="30" viewBox="0 0 150 30" fill="none" xmlns="http://www.w3.org/2000/svg">
<g clip-path="url(#clip0)">
<path d="M13.4153 29.9999C12.7776 29.8764 12.1346 29.773 11.5021 29.6267C5.47028 28.2346 1.09932 23.5591 0.0631186 17.3974C0.0262994 17.1813 0.0249844 16.9585 0 16.6524C1.10984 16.6524 2.17496 16.6524 3.2414 16.6524C3.96332 16.6524 4.68656 16.6739 5.40848 16.6443C5.80823 16.6282 5.95287 16.7638 6.06465 17.1665C7.0443 20.6729 9.2574 22.9362 12.771 23.747C17.3195 24.7981 21.8759 21.9522 23.1317 17.3478C23.1895 17.1343 23.2434 16.9182 23.3052 16.6833C25.2566 16.6833 27.1975 16.6833 29.2962 16.6833C29.0911 17.6176 28.978 18.5197 28.694 19.3614C26.6439 25.4438 22.4952 28.9743 16.2149 29.8777C16.0676 29.8992 15.9256 29.9596 15.781 30.0012C14.992 29.9999 14.203 29.9999 13.4153 29.9999Z" fill="#323232"/>
<path d="M60.2875 0.424316C62.0482 4.82337 63.7603 9.09623 65.5382 13.5369C67.3107 9.09757 69.0281 4.79518 70.7481 0.484724C72.7876 0.484724 74.7995 0.484724 76.9521 0.484724C73.1545 10.1581 69.3792 19.7737 65.5421 29.5504C63.7524 25.0171 62.0219 20.6315 60.2323 16.0969C58.4833 20.6221 56.7857 25.0158 55.0329 29.5477C51.1971 19.7831 47.4192 10.1621 43.611 0.465931C45.6427 0.465931 47.5849 0.453849 49.5271 0.488752C49.6928 0.491437 49.9216 0.78408 50.0057 0.99081C51.4759 4.62738 52.9289 8.272 54.3846 11.9153C54.5818 12.4079 54.7804 12.8993 55.0342 13.5315C56.8002 9.12979 58.5162 4.84485 60.2875 0.424316Z" fill="#323232"/>
<path d="M150 29.4994C144.305 24.2157 138.7 19.0179 132.959 13.6926C132.959 19.0488 132.959 24.2345 132.959 29.4565C131.008 29.4565 129.155 29.4565 127.258 29.4565C127.258 19.8395 127.258 10.2319 127.258 0.496826C132.929 5.74965 138.544 10.9501 144.259 16.2445C144.259 10.9367 144.259 5.7483 144.259 0.512935C146.205 0.512935 148.076 0.512935 150 0.512935C150 10.1205 150 19.7428 150 29.4994Z" fill="#323232"/>
<path d="M92.0453 29.4441C92.0453 19.7976 92.0453 10.1834 92.0453 0.518066C97.6576 0.518066 103.269 0.518066 108.924 0.518066C108.924 2.42293 108.924 4.32512 108.924 6.29979C105.228 6.29979 101.539 6.29979 97.8101 6.29979C97.8101 8.23151 97.8101 10.0921 97.8101 12.0318C101.492 12.0318 105.181 12.0318 108.955 12.0318C108.339 13.6333 107.759 15.1368 107.182 16.6417C106.69 17.9223 106.69 17.9223 105.355 17.9223C102.861 17.9223 100.365 17.9223 97.8193 17.9223C97.8193 19.8151 97.8193 21.6716 97.8193 23.6114C101.499 23.6114 105.184 23.6114 108.919 23.6114C108.919 25.5941 108.919 27.495 108.919 29.4441C103.301 29.4441 97.6905 29.4441 92.0453 29.4441Z" fill="#323232"/>
<path d="M29.2108 13.2628C27.2213 13.2628 25.2777 13.2628 23.3474 13.2628C22.0587 8.82484 19.3117 6.21521 14.6475 6.03533C12.5291 5.95478 10.6539 6.69311 9.02206 8.0543C7.60716 9.23427 7.20741 9.92293 5.88717 13.2575C3.94891 13.2575 2.0067 13.2575 0.0631714 13.2575C0.338 7.75897 5.15342 0.859026 13.1169 0.0750636C22.0271 -0.801525 28.5783 6.1199 29.2108 13.2628Z" fill="#323232"/>
</g>
<defs>
<clipPath id="clip0">
<rect width="150" height="30" fill="white"/>
</clipPath>
</defs>
</svg>
